# xmcd
#
# Track frame offsets:
#	150
#	17859
#	28253
#	39769
#	52013
#	67344
#	80966
#	95542
#	108508
#	118135
#	130814
#	141164
#	157072
#	168618
#	182915
#	194956
#	206038
#	217577
#
# Disc length: 3034 seconds
#
# Revision: 2
# Processed by: cddbd v1.5.2PL0 Copyright (c) Steve Scherf et al.
# Submitted via: EZCDAudioConverter 1.3.4.1
#
DISCID=1d0bd812
DTITLE=The Zombies - Odessey and Oracle 1/2
DYEAR=1900
DGENRE=
TTITLE0=Care Of Cell 44
TTITLE1=A Rose For Emily
TTITLE2=Maybe After He's Gone
TTITLE3=Beechwood Park
TTITLE4=Brief Candles
TTITLE5=Hung Up On A Dream
TTITLE6=Changes
TTITLE7=I Want Her She Wants Me
TTITLE8=This Will Be Our Year
TTITLE9=Butcher's Tale (Western Front 1914)
TTITLE10=Friends Of Mine
TTITLE11=Time Of The Season
TTITLE12=I'll Call You Mine
TTITLE13=Imagine The Swan
TTITLE14=Conversation Off Floral Street
TTITLE15=If It Don't Work Out
TTITLE16=I Know She Will
TTITLE17=Don't Cry For Me
EXTD=
EXTT0=
EXTT1=
EXTT2=
EXTT3=
EXTT4=
EXTT5=
EXTT6=
EXTT7=
EXTT8=
EXTT9=
EXTT10=
EXTT11=
EXTT12=
EXTT13=
EXTT14=
EXTT15=
EXTT16=
EXTT17=
PLAYORDER=
